<?xml version="1.0" encoding="utf-8" ?>
<svg xmlns="http://www.w3.org/2000/svg" xmlns:xlink="http://www.w3.org/1999/xlink" width="327" height="327">
	<path fill="#085F7D" transform="scale(0.512297 0.512297)" d="M248.588 254.496C270.831 252.223 272.304 285.394 250.387 288.749C226.766 288.606 224.829 256.791 248.588 254.496Z"/>
	<path fill="#085F7D" transform="scale(0.512297 0.512297)" d="M296.105 254.477C319.249 253.124 320.424 284.585 299.3 288.756C274.41 289.051 273.517 257.268 296.105 254.477Z"/>
	<path fill="#085F7D" transform="scale(0.512297 0.512297)" d="M201.586 254.193C224.227 255.178 224.328 286.681 201.441 288.766C178.651 287.508 177.385 255.887 201.586 254.193Z"/>
	<path fill="#085F7D" transform="scale(0.512297 0.512297)" d="M392.576 254.491C414.701 252.839 418.219 283.634 395.884 288.456C371.851 290.514 368.766 257.184 392.576 254.491Z"/>
	<path fill="#085F7D" transform="scale(0.512297 0.512297)" d="M342.582 254.44C366.214 252.194 369.705 283.175 348.47 288.565C346.487 288.826 344.188 288.872 342.21 288.569L341.719 288.488C324.421 285.865 322.24 259.116 342.582 254.44Z"/>
	<path fill="#085F7D" transform="scale(0.512297 0.512297)" d="M439.086 254.454C463.125 252.119 465.967 282.974 444.689 288.36C422.59 291.632 414.46 260.102 439.086 254.454Z"/>
	<path fill="#085F7D" transform="scale(0.512297 0.512297)" d="M268.301 337.321L270.781 337.263C295.521 337.751 309.745 361.169 314.118 383.306C314.57 385.595 314.82 388.772 316.574 390.453C319.266 393.036 324.482 391.951 326.401 388.948C328.052 386.364 328.538 382.04 329.342 379.062C336.346 353.145 356.737 331.548 384.987 338.169C409.536 343.922 426.191 370.461 426.89 394.5C427.793 425.566 409.205 457.583 388.322 479.786C370.493 499.305 341.513 526.948 313.644 521.787C297.81 518.855 285.268 507.929 273.424 497.764C236.214 465.828 193.937 399.985 232.654 355.451C242.202 344.47 253.933 338.249 268.301 337.321Z"/>
	<path fill="#84D1E6" transform="scale(0.512297 0.512297)" d="M469.049 117.341C476.25 116.813 488.803 116.757 495.532 118.03C520.797 122.813 537.39 141.333 543.178 165.625C544.633 171.731 544.578 177.621 544.598 183.905L544.63 389.941C544.604 417.171 543.843 442.75 518.268 460.289C501.722 471.637 489.155 471.427 470.484 471.439L423.581 471.462C421.205 471.469 418.358 471.797 416.04 471.368C420.299 466.911 421.979 458.394 427.647 458.429L485.299 458.381C512.246 457.668 531.611 436.043 531.572 409.56L530.769 199.572C529.097 199.03 526.363 199.362 524.573 199.352L175.09 198.744L112.033 199.35C111.637 200.52 111.87 202.226 111.871 203.474L111.959 411.535C112.715 434.102 127.498 452.47 149.897 457.575C154.784 458.689 160.08 458.437 165.062 458.449L217.832 458.426L226.32 471.34C222.548 471.731 218.502 471.463 214.699 471.465L167.157 471.457C162.413 471.452 157.468 471.694 152.747 471.259L152.188 471.204C122.316 468.512 99.1029 440.139 99.0223 410.519L98.9333 181.545C98.9036 164.395 104.533 147.786 116.899 135.508C131.448 121.062 146.166 117.406 165.589 117.377L469.049 117.341Z"/>
	<path fill="white" transform="scale(0.512297 0.512297)" d="M286.014 155.033C289.679 154.887 291.739 156.859 293.367 160.036C291.787 163.839 289.547 166.088 285.365 167.093L283.438 166.823C273.6 164.143 277.73 157.478 286.014 155.033Z"/>
	<path fill="white" transform="scale(0.512297 0.512297)" d="M237.111 155.077C241.348 154.411 243.618 156.653 245.731 160.166C243.816 163.428 241.513 165.42 238.005 166.873C232.658 167.588 223.13 159.611 237.111 155.077Z"/>
	<path fill="white" transform="scale(0.512297 0.512297)" d="M190.325 154.1L191.593 154.281C194.453 154.993 196.451 157.849 197.9 160.197L197.16 161.562C195.629 164.535 193.02 167.422 189.531 167.881C185.836 167.81 183.176 164.496 181.641 161.469C182.484 157.612 186.876 155.143 190.325 154.1Z"/>
</svg>
