<?xml version="1.0" encoding="utf-8" ?>
<svg xmlns="http://www.w3.org/2000/svg" xmlns:xlink="http://www.w3.org/1999/xlink" width="109" height="109">
	<defs>
		<linearGradient id="gradient_0" gradientUnits="userSpaceOnUse" x1="363.37939" y1="146.81992" x2="333.23383" y2="148.58421">
			<stop offset="0" stop-color="#047592"/>
			<stop offset="1" stop-color="#2CAAC1"/>
		</linearGradient>
	</defs>
	<path fill="url(#gradient_0)" transform="scale(0.170344 0.170344)" d="M340.513 102.276C343.789 102.563 345.6 103.933 347.798 106.379C363.488 123.835 368.266 151.579 360.752 173.459C358.439 180.193 354.961 190.521 348.108 193.872C343.217 195.06 337.571 189.844 337.207 185.142C336.869 180.789 338.74 176.338 340.014 172.256C345.599 154.361 343.749 142.049 335.451 125.487C333.862 122.316 331.524 118.78 330.791 115.316C329.579 109.589 335.211 103.337 340.513 102.276Z"/>
	<defs>
		<linearGradient id="gradient_1" gradientUnits="userSpaceOnUse" x1="262.76385" y1="141.67818" x2="232.21913" y2="145.59839">
			<stop offset="0" stop-color="#007296"/>
			<stop offset="1" stop-color="#3FBAD2"/>
		</linearGradient>
	</defs>
	<path fill="url(#gradient_1)" transform="scale(0.170344 0.170344)" d="M238.808 167.658L240.679 157.188C242.39 143.846 240.587 130.232 233.993 118.381L230.343 112.408C223.961 102.632 231.262 92.8302 240.298 94.1442C249.121 95.4271 260.453 124.642 262.089 134.85C264.7 151.133 261.041 168.488 255.781 183.824C253.654 190.028 248.459 200.77 241.503 191.162C235.238 185.059 236.596 175.254 238.808 167.658Z"/>
	<defs>
		<linearGradient id="gradient_2" gradientUnits="userSpaceOnUse" x1="315.83704" y1="130.76535" x2="255.13385" y2="114.69404">
			<stop offset="0" stop-color="#005675"/>
			<stop offset="1" stop-color="#24B4C8"/>
		</linearGradient>
	</defs>
	<path fill="url(#gradient_2)" transform="scale(0.170344 0.170344)" d="M271.348 74.1103C264.424 66.845 270.772 54.4877 279.844 55.6321C283.752 56.1251 287.664 61.4669 289.903 64.3673C317.869 95.9719 318.818 140.609 301.257 177.293C298.557 182.933 295.83 189.718 288.452 189.138C284.761 188.847 280.988 185.932 280.247 182.188L280.174 181.87C279.438 178.313 282.411 171.934 283.616 168.54L287.635 156.503C295.923 128.763 292.467 106.218 276.877 82.6185C275.088 79.9098 272.671 77.0454 271.348 74.1103Z"/>
	<defs>
		<linearGradient id="gradient_3" gradientUnits="userSpaceOnUse" x1="534.35516" y1="373.06799" x2="459.18463" y2="352.83441">
			<stop offset="0" stop-color="#005575"/>
			<stop offset="1" stop-color="#1494B0"/>
		</linearGradient>
	</defs>
	<path fill="url(#gradient_3)" transform="scale(0.170344 0.170344)" d="M492.415 282.293L501.562 282.732C517.985 284.721 531.584 300.422 537.349 314.918C544.602 333.153 541.936 354.827 534.233 372.432C520.645 403.484 491.526 417.642 461.694 429.224C455.972 431.446 450.412 433.193 444.52 430.601L444.109 430.348C438.298 426.575 439.765 417.226 444.773 413.434C449.404 409.927 456.236 408.352 461.696 406.397C491.179 395.839 520.149 375.257 520.763 341.089C521.02 326.774 514.56 307.201 498.594 304.463C493.333 303.561 483.205 306.204 479.201 303.276C467.078 294.412 480.852 283.512 492.415 282.293Z"/>
	<defs>
		<linearGradient id="gradient_4" gradientUnits="userSpaceOnUse" x1="473.05344" y1="356.65164" x2="147.7092" y2="391.86682">
			<stop offset="0" stop-color="#004969"/>
			<stop offset="1" stop-color="#B9FFFF"/>
		</linearGradient>
	</defs>
	<path fill="url(#gradient_4)" transform="scale(0.170344 0.170344)" d="M354.146 232.528L420.03 232.472C424.57 232.45 428.92 232.255 433.381 233.281C451.628 237.48 463.842 253.642 463.778 272.334C463.739 283.511 458.168 294.968 454.701 305.469L443.842 339.688L413.762 441.778C405.331 469.394 400.23 500.05 374.395 517.222L374.365 517.22C365.976 523.17 353.433 527.541 343.143 527.541C337.603 528.1 331.838 527.771 326.272 527.772L263.022 527.769C256.694 527.766 249.992 528.2 243.75 527.131C208.782 521.145 197.305 497.578 188.958 467.554L138.894 288.68C137.506 283.979 136.025 279.244 135.208 274.402C130.97 249.272 152.591 232.66 175.995 232.538L315.102 232.525L354.146 232.528Z"/>
</svg>
