<?xml version="1.0" encoding="utf-8" ?>
<svg xmlns="http://www.w3.org/2000/svg" xmlns:xlink="http://www.w3.org/1999/xlink" width="327" height="327">
	<defs>
		<linearGradient id="gradient_0" gradientUnits="userSpaceOnUse" x1="535.67444" y1="294.4798" x2="304.11185" y2="462.56451">
			<stop offset="0" stop-color="#698AF9"/>
			<stop offset="1" stop-color="#A1C8F4"/>
		</linearGradient>
	</defs>
	<path fill="url(#gradient_0)" transform="scale(0.512297 0.512297)" d="M477.151 279.203C523.855 277.576 563.815 312.91 570.3 358.979C576.153 400.562 557.085 424.474 529.462 450.701L460.439 517.727C433.936 542.82 398.898 549.684 368.234 525.515C363.428 521.727 359.123 517.167 354.945 512.71L300.801 452.811C290.606 442.125 279.192 431.438 271.847 418.493C252.004 383.522 258.768 338.076 285.625 308.691C314.941 276.614 366.382 269.124 402.2 294.685C404.512 296.335 417.189 306.794 419.013 306.491C422.219 305.959 437.545 292.848 441.928 290.125C452.591 283.5 464.638 279.762 477.151 279.203Z"/>
	<defs>
		<linearGradient id="gradient_1" gradientUnits="userSpaceOnUse" x1="426.63293" y1="70.458557" x2="82.661438" y2="440.8378">
			<stop offset="0" stop-color="#6A85FA"/>
			<stop offset="1" stop-color="#B5ECF5"/>
		</linearGradient>
	</defs>
	<path fill="url(#gradient_1)" transform="scale(0.512297 0.512297)" d="M377.38 115.104L424.297 115.095C433.885 115.097 443.813 114.597 453.366 115.406C486.169 118.184 513.421 144.202 516.265 177.242C516.728 182.616 516.451 188.235 516.453 193.632L516.419 237.999C516.347 266.858 483.573 267.93 478.087 249.062L477.988 248.734C476.005 241.733 481.056 232.892 471.875 229.317L471.463 229.148C469.411 228.374 466.622 228.714 464.459 228.722L406.468 228.74L149.949 228.769C146.793 228.775 143.476 228.644 140.354 229.128L139.844 229.211C133.141 230.119 132.489 235.537 132.483 240.86L132.49 401.668C132.494 406.534 132.29 411.521 132.682 416.368C133.804 430.279 146.148 442.703 159.506 445.52C164.396 446.552 169.534 446.186 174.508 446.187L247.813 445.983C249.265 445.918 252.4 445.905 253.562 444.968L254.219 444.719C254.481 445.83 255.313 446.416 256.094 447.225L268.625 460.744C273.473 466.472 289.591 485.527 272.002 486.308L166.077 486.369C160.578 486.366 154.71 486.752 149.252 486.085C116.272 482.049 91.2466 452.281 91.0128 419.526L91.0073 204.337C91.0127 193.374 90.2172 182.018 92.2503 171.209C97.4068 143.794 118.515 122.278 145.881 116.679C156.964 114.411 168.575 115.123 179.835 115.127L377.38 115.104ZM421.14 158.884C412.376 159.652 405.045 165.03 403.715 174.062L403.634 174.587C402.477 182.572 407.865 189.404 415 192.172L415.407 192.334C418.653 193.578 423.503 192.98 426.986 192.987L446.765 193.011C448.06 193.011 452.102 193.005 452.11 192.879C460.557 192.599 467.975 188.468 469.723 179.688L469.807 179.309C471.827 169.749 464.474 160.899 455.302 159.177C451.128 158.394 446.514 158.746 442.265 158.741L421.14 158.884ZM197.982 160.076C173.385 164.513 178.647 197.775 203.214 195.836C227.568 189.94 220.744 157.404 197.982 160.076ZM152.926 159.777C127.731 163.416 132.797 197.692 156.581 195.654C178.895 190.853 177.651 158.479 152.926 159.777Z"/>
</svg>
